<?xml version="1.0" ?><svg viewBox="0 0 22.434 22.416" xmlns="http://www.w3.org/2000/svg"><g data-name="Layer 2" id="Layer_2"><g data-name="Layer 1" id="Layer_1-2"><path d="M21.98,12.179a8.633,8.633,0,0,1-1.837-3.055A9.162,9.162,0,1,0,1.979,10.871H.34a.34.34,0,1,0,0,.68H3.624v5.662H.34a.34.34,0,1,0,0,.68H5.374a18.915,18.915,0,0,1,.517,4.194.34.34,0,0,0,.679-.008,19.994,19.994,0,0,0-.489-4.186h6.326a1.669,1.669,0,0,0,1.608-2.085,1.561,1.561,0,0,0,.671-2.348,1.463,1.463,0,0,0-.035-2.2,1.586,1.586,0,0,0-1.019-2.65H9.842c.615-2.521-.393-5.944-3.308-4.785a.337.337,0,0,0-.16.363,7.413,7.413,0,0,1,.2,2.441c-.434,1.472-2.369,2.93-2.89,4.242H2.672A8.482,8.482,0,1,1,19.463,9.165a8.126,8.126,0,0,0,2,3.451c.248.369.515.672-.009,1a15.2,15.2,0,0,1-1.826.867.34.34,0,0,0-.213.361,13.256,13.256,0,0,1,.036,3.218c-.1.507-1.242.848-2.849.848a1.377,1.377,0,0,0-1.494,1.443v1.733a.34.34,0,0,0,.68,0V20.35a.72.72,0,0,1,.814-.764c4.1-.021,3.742-1.464,3.517-4.571C21.274,14.5,23.356,13.849,21.98,12.179ZM4.3,11.211C4.735,9.93,6.827,8.376,7.22,6.846A6.8,6.8,0,0,0,7.1,4.351c1.211-.309,2.029.46,2.2,2.169a6.405,6.405,0,0,1-.222,2.333.342.342,0,0,0,.326.436h4.227a.838.838,0,0,1,.759.847.805.805,0,0,1-.509.839.34.34,0,0,0,0,.68.686.686,0,0,1,.613.712c.008.553-.543.659-.625,1.024.01.351.474.532.443.928a1,1,0,0,1-.818.95.337.337,0,0,0-.242.193c-.114.268.184.5.142.777a1,1,0,0,1-.988.974H4.3Zm-2.491,4.53a.34.34,0,0,1,.679,0A.34.34,0,0,1,1.812,15.741Z" id="reliability"/></g></g></svg>